<svg width="20" height="22" viewBox="0 0 20 22" fill="none" xmlns="http://www.w3.org/2000/svg">
<path d="M18.9709 14.9883H4.99233C4.72752 14.9883 4.47356 14.8829 4.28631 14.6954C4.09906 14.5079 3.99387 14.2535 3.99387 13.9883C3.99387 13.7231 4.09906 13.4687 4.28631 13.2812C4.47356 13.0936 4.72752 12.9883 4.99233 12.9883H15.4163C16.0839 12.9883 16.7324 12.765 17.2589 12.3537C17.7853 11.9424 18.1594 11.3668 18.3219 10.7183L19.9693 4.22828C20.0067 4.08069 20.01 3.92649 19.9788 3.77745C19.9477 3.62841 19.883 3.48846 19.7896 3.36828C19.6925 3.24501 19.5678 3.14638 19.4255 3.08036C19.2833 3.01434 19.1275 2.9828 18.9709 2.98828H4.7527C4.5467 2.40473 4.16553 1.89928 3.66144 1.54122C3.15735 1.18316 2.55502 0.990021 1.93702 0.988281H0.998466C0.733657 0.988281 0.479693 1.09364 0.292444 1.28117C0.105195 1.46871 0 1.72306 0 1.98828C0 2.2535 0.105195 2.50785 0.292444 2.69539C0.479693 2.88292 0.733657 2.98828 0.998466 2.98828H1.93702C2.16511 2.98163 2.38859 3.05341 2.57026 3.19169C2.75193 3.32998 2.88082 3.52641 2.93549 3.74828L2.9954 4.22828L4.72275 10.9883C3.92832 11.0241 3.18063 11.3745 2.64416 11.9624C2.10769 12.5503 1.82639 13.3276 1.86214 14.1233C1.89789 14.9189 2.24776 15.6678 2.83478 16.2051C3.42181 16.7424 4.1979 17.0241 4.99233 16.9883H5.17206C5.00784 17.4414 4.95508 17.9275 5.01822 18.4054C5.08137 18.8833 5.25857 19.3389 5.53482 19.7336C5.81106 20.1284 6.17823 20.4507 6.60521 20.6731C7.03219 20.8956 7.50642 21.0118 7.98773 21.0118C8.46904 21.0118 8.94327 20.8956 9.37025 20.6731C9.79724 20.4507 10.1644 20.1284 10.4406 19.7336C10.7169 19.3389 10.8941 18.8833 10.9572 18.4054C11.0204 17.9275 10.9676 17.4414 10.8034 16.9883H13.1598C12.9956 17.4414 12.9428 17.9275 13.006 18.4054C13.0691 18.8833 13.2463 19.3389 13.5225 19.7336C13.7988 20.1284 14.166 20.4507 14.5929 20.6731C15.0199 20.8956 15.4941 21.0118 15.9755 21.0118C16.4568 21.0118 16.931 20.8956 17.358 20.6731C17.785 20.4507 18.1521 20.1284 18.4284 19.7336C18.7046 19.3389 18.8818 18.8833 18.945 18.4054C19.0081 17.9275 18.9553 17.4414 18.7911 16.9883H18.9709C19.2357 16.9883 19.4896 16.8829 19.6769 16.6954C19.8641 16.5079 19.9693 16.2535 19.9693 15.9883C19.9693 15.7231 19.8641 15.4687 19.6769 15.2812C19.4896 15.0936 19.2357 14.9883 18.9709 14.9883ZM17.6928 4.98828L16.3848 10.2283C16.3302 10.4502 16.2013 10.6466 16.0196 10.7849C15.8379 10.9231 15.6144 10.9949 15.3864 10.9883H6.7696L5.2719 4.98828H17.6928ZM7.98773 18.9883C7.79025 18.9883 7.59721 18.9296 7.43301 18.8198C7.26881 18.7099 7.14084 18.5537 7.06527 18.371C6.9897 18.1882 6.96992 17.9872 7.00845 17.7932C7.04698 17.5992 7.14207 17.421 7.28171 17.2812C7.42135 17.1413 7.59926 17.0461 7.79294 17.0075C7.98662 16.9689 8.18738 16.9887 8.36983 17.0644C8.55227 17.1401 8.70821 17.2683 8.81792 17.4327C8.92764 17.5972 8.9862 17.7905 8.9862 17.9883C8.9862 18.2535 8.881 18.5079 8.69375 18.6954C8.5065 18.8829 8.25254 18.9883 7.98773 18.9883ZM15.9755 18.9883C15.778 18.9883 15.5849 18.9296 15.4207 18.8198C15.2565 18.7099 15.1286 18.5537 15.053 18.371C14.9774 18.1882 14.9577 17.9872 14.9962 17.7932C15.0347 17.5992 15.1298 17.421 15.2694 17.2812C15.4091 17.1413 15.587 17.0461 15.7807 17.0075C15.9744 16.9689 16.1751 16.9887 16.3576 17.0644C16.54 17.1401 16.6959 17.2683 16.8057 17.4327C16.9154 17.5972 16.9739 17.7905 16.9739 17.9883C16.9739 18.2535 16.8687 18.5079 16.6815 18.6954C16.4942 18.8829 16.2403 18.9883 15.9755 18.9883Z" fill="#585660"/>
</svg>
